<svg width="119" height="44" viewBox="0 0 119 44" fill="none" xmlns="http://www.w3.org/2000/svg">
<path d="M114.616 37.3353C115.096 37.3953 115.577 37.4674 116.057 37.4914C116.333 37.5034 116.61 37.4434 116.898 37.4194C116.886 37.4554 116.874 37.4794 116.874 37.4794C116.778 37.4914 116.682 37.5034 116.466 37.5274C116.802 37.5995 117.042 37.6475 117.27 37.7076C117.258 37.7556 117.258 37.8036 117.246 37.8517C116.91 37.8517 116.562 37.8517 116.225 37.8517C116.213 37.8997 116.201 37.9597 116.189 38.0078C116.526 38.0798 116.85 38.1519 117.162 38.2239C116.706 38.368 116.237 38.5241 115.769 38.6802C115.769 38.6562 115.757 38.6442 115.757 38.6202C115.829 38.6082 115.889 38.5842 115.961 38.5722C115.961 38.5241 115.949 38.4761 115.949 38.4401C115.132 38.5001 114.327 38.5722 113.403 38.6442C114.4 38.8244 115.264 38.9805 116.177 39.1366C115.949 39.1606 115.745 39.1846 115.553 39.2086C115.553 39.2687 115.541 39.3287 115.541 39.3888C116.55 39.4608 117.559 39.5329 118.568 39.6049C118.568 39.6529 118.568 39.701 118.568 39.749C117.943 39.713 117.306 39.689 116.682 39.6529C116.67 39.713 116.658 39.773 116.634 39.8331C116.874 39.8931 117.114 39.9652 117.27 40.0132C116.874 40.0372 116.393 40.0612 115.817 40.0972C116.466 40.2293 117.018 40.3374 117.643 40.4575C117.03 40.4575 116.478 40.4575 115.925 40.4575C115.925 40.4815 115.925 40.5175 115.913 40.5416C116.79 40.6857 117.667 40.8298 118.544 40.9739C118.544 40.9859 118.544 40.9859 118.544 40.9979C117.703 40.9619 116.862 40.9138 116.009 40.8778C116.009 40.9018 115.997 40.9378 115.997 40.9619C116.754 41.106 117.499 41.2621 118.255 41.4062C118.255 41.4302 118.267 41.4542 118.267 41.4782C116.129 41.4182 114.003 41.3581 111.865 41.2861V41.2981C113.547 41.4542 115.228 41.6103 116.898 41.7664C116.898 41.8145 116.898 41.8745 116.898 41.9225C116.706 41.9466 116.514 41.9706 116.321 42.0066C116.321 42.0186 116.321 42.0426 116.321 42.0546C116.73 42.0907 117.15 42.1147 117.559 42.1507C117.559 42.1627 117.559 42.1747 117.559 42.1867C116.405 42.1867 115.264 42.1867 114.171 42.1867C114.748 42.2468 115.384 42.3068 116.021 42.3669C116.021 42.4149 116.021 42.4749 116.021 42.523C115.709 42.535 115.409 42.547 115.096 42.571C115.096 42.619 115.096 42.6791 115.096 42.7271C116.393 42.8232 117.691 42.9192 119 43.0153C119 43.0633 119 43.0994 118.988 43.1474C116.009 42.9553 113.042 42.7751 110.063 42.583C110.063 42.595 110.063 42.619 110.063 42.631C112.081 42.8232 114.087 43.0153 116.105 43.2074C116.093 43.3035 116.093 43.3876 116.081 43.4836C115.469 43.4476 114.856 43.4116 114.255 43.3756C114.243 43.4476 114.243 43.5317 114.231 43.6037C114.892 43.6758 115.541 43.7478 116.201 43.8199C116.189 43.8799 116.189 43.94 116.177 44C80.058 41.4902 43.9268 38.9805 7.7956 36.4707C7.7956 36.3986 7.7956 36.3266 7.80761 36.2545C8.62441 36.2545 9.4412 36.2545 10.27 36.2545C11.0868 36.2545 11.9036 36.2545 12.7084 36.2545C12.7084 36.2425 12.7084 36.2185 12.7084 36.2065C10.8466 36.0744 8.97275 35.9303 7.11093 35.7982C7.11093 35.7502 7.11093 35.7021 7.11093 35.6541C8.56435 35.6541 10.0178 35.6541 11.4832 35.6541C11.4832 35.5821 11.4952 35.51 11.4952 35.426C10.4262 35.3539 9.36913 35.2698 8.30009 35.1978C8.30009 35.1498 8.30009 35.1017 8.30009 35.0657C10.0418 35.1738 11.7835 35.2819 13.5252 35.4019C13.5252 35.3299 13.5372 35.2698 13.5372 35.1978C11.1469 35.0297 8.74452 34.8616 6.35419 34.6934C6.35419 34.6454 6.35419 34.5974 6.35419 34.5493C6.8707 34.5133 7.3872 34.4773 7.91572 34.4413C7.91572 34.4653 7.91572 34.4773 7.92773 34.5013C7.7956 34.5133 7.67548 34.5373 7.66347 34.5373C10.9547 34.6694 14.366 34.8135 17.7773 34.9576C17.7773 34.9456 17.7773 34.9336 17.7773 34.9216C15.3029 34.7295 12.8165 34.5493 10.1979 34.3452C10.5102 34.3212 10.6904 34.3092 10.8706 34.2852C10.8706 34.2611 10.8706 34.2491 10.8706 34.2251C10.1739 34.2251 9.48925 34.2251 8.79257 34.2251C8.79257 34.2131 8.79257 34.2131 8.78056 34.2011C8.91269 34.1891 9.04482 34.1771 9.18896 34.1531C9.18896 34.141 9.18896 34.129 9.18896 34.105C8.90068 34.105 8.61239 34.105 8.32411 34.105H8.33613C8.50429 34.033 8.67245 33.9009 8.84062 33.9009C10.1619 33.9729 11.4712 34.069 12.7925 34.1651C12.9847 34.1771 13.1768 34.1651 13.369 34.105C12.4321 34.033 11.4952 33.9609 10.5583 33.8889C10.5583 33.8528 10.5583 33.8048 10.5703 33.7688C11.4472 33.7688 12.324 33.7688 13.2009 33.7688C13.2009 33.7568 13.2009 33.7448 13.2009 33.7328C10.9307 33.5406 8.64843 33.3485 6.37822 33.1564C6.37822 33.0963 6.39023 33.0483 6.39023 32.9882C9.47724 32.676 12.5522 33.1203 15.6272 33.3005C16.2278 33.3365 16.8164 33.3725 17.441 33.4085C17.417 33.3605 17.405 33.3245 17.393 33.3245C15.2308 33.1443 13.0808 33.0002 10.9186 32.7841C9.60937 32.652 8.3121 32.4118 7.01484 32.1116C8.68447 32.2197 10.3541 32.3398 12.0357 32.4478C12.0357 32.4118 12.0477 32.3638 12.0477 32.3278C10.7265 32.1717 9.39316 32.0155 8.07187 31.8594C8.07187 31.8114 8.08388 31.7634 8.08388 31.7153C8.98476 31.7754 9.88564 31.8354 10.7865 31.8835C10.7865 31.8594 10.7985 31.8474 10.7985 31.8234C10.5463 31.7754 10.282 31.7273 10.0298 31.6673C10.0418 31.6073 10.0538 31.5352 10.0538 31.4752C10.9907 31.5232 11.9276 31.5712 12.8645 31.6313C12.8645 31.5952 12.8645 31.5712 12.8766 31.5352C10.9547 31.3431 9.03281 31.1629 7.23105 30.9828C8.21601 30.1662 9.48925 30.8267 10.6664 30.6106C10.6664 30.5625 10.6664 30.5145 10.6664 30.4665C10.0178 30.3944 9.36913 30.3344 8.73251 30.2623C8.73251 30.2023 8.73251 30.1422 8.73251 30.0702C8.98476 30.0582 9.24902 30.0341 9.50126 30.0221C9.50126 29.9981 9.51328 29.9621 9.51328 29.9381C8.27607 29.794 7.03886 29.6619 5.78965 29.5178C5.78965 29.4818 5.78965 29.4457 5.78965 29.4097C6.67851 29.4097 7.55536 29.4097 8.44423 29.4097C9.59735 29.4938 10.7625 29.5658 11.9156 29.6499C11.9156 29.5658 11.9156 29.4938 11.9276 29.4097C10.7625 29.4097 9.59735 29.4097 8.44423 29.4097C8.28808 29.3016 8.14394 29.1335 7.97577 29.1215C7.54335 29.0855 7.11093 29.1095 6.67851 28.9654C7.91572 28.9654 9.16494 28.9654 10.294 28.9654C10.0058 28.9294 9.59736 28.8693 9.18896 28.8093C9.18896 28.7733 9.18896 28.7372 9.17695 28.7012C10.0418 28.7012 10.8946 28.7012 11.7595 28.7012C11.7595 28.6652 11.7595 28.6292 11.7475 28.6051C10.8466 28.473 9.94569 28.353 9.04482 28.2209C9.05683 28.2209 9.05683 28.2209 9.06884 28.2209C9.08085 28.1848 9.09286 28.1488 9.10487 28.1128C8.13193 27.8966 7.14697 27.6805 6.17402 27.4643C6.17402 27.4163 6.17402 27.3683 6.18603 27.3322C7.183 27.3322 8.16796 27.3322 9.16493 27.3322C9.17694 27.2722 9.17695 27.2001 9.18896 27.1401C8.22802 27.008 7.26709 26.8759 6.67851 26.8039C8.38417 26.8039 10.5463 26.1554 12.7084 26.1554C12.6003 26.984 12.4201 28.377 12.324 29.1215C12.3 29.3377 12.264 29.5538 12.2399 29.77C12.1799 30.2743 12.4201 30.5145 12.9126 30.5505C15.5071 30.7426 18.1016 30.9348 20.6962 31.1389C21.2247 31.175 21.4529 30.8988 21.6331 30.4785C22.6781 28.0648 23.7472 25.639 24.8042 23.2253C24.8763 23.0692 24.9603 22.9131 25.0324 22.757C24.8162 25.3268 24.6 27.8846 24.4078 30.4424C24.3357 31.3431 24.3838 31.3911 25.2967 31.4632C27.8311 31.6553 30.3656 31.8234 32.9001 32.0276C33.3685 32.0636 33.6328 31.8955 33.813 31.4511C36.7318 24.3061 39.6627 17.1731 42.5815 10.04C42.8938 9.28351 42.7016 8.9953 41.9089 8.93526C39.999 8.79116 38.0771 8.67107 36.1673 8.51497C35.6387 8.46693 35.3625 8.65907 35.1583 9.13941C33.9931 11.9854 32.804 14.8314 31.6268 17.6654C31.5788 17.7855 31.5187 17.9176 31.3746 18.0137C31.5668 16.9449 31.747 15.8642 31.9391 14.7954C32.2635 12.9101 32.5998 11.0127 32.9241 9.1274C33.0322 8.52697 32.816 8.25078 32.2154 8.20275C30.1013 8.03463 27.9873 7.89053 25.8732 7.72241C25.3207 7.67438 25.0925 7.97459 24.9003 8.4189C23.7471 11.2049 22.582 13.9908 21.4289 16.7768C21.3808 16.9089 21.3208 17.029 21.1887 17.1371C21.4529 15.672 21.7172 14.207 21.9814 12.754C22.2337 11.361 22.4979 9.96799 22.7382 8.563C22.8943 7.68638 22.7502 7.51826 21.8373 7.44621C19.9995 7.30211 18.1617 7.15801 16.3359 7.01391C15.5552 6.95386 15.387 7.09797 15.2789 7.86651C14.4381 13.9908 13.529 20.0941 12.7002 26.2184C12.6401 26.6387 12.5522 26.7678 12.1318 26.7198C11.0508 26.5877 9.95771 26.4676 8.86464 26.3716C8.34814 26.3235 7.83163 26.3596 7.50732 26.3596C7.81962 26.2875 8.33613 26.1554 8.96074 26.0113C7.47128 25.8552 6.0539 25.6991 4.63652 25.555C4.64853 25.507 4.64853 25.4709 4.66054 25.4229C6.3662 25.4229 8.07187 25.4229 9.76552 25.4229C9.76552 25.4109 9.76552 25.4109 9.77753 25.3989C9.18896 25.3508 8.60039 25.3268 8.01181 25.2428C7.2791 25.1347 6.57041 24.9666 6.15 24.8825C7.13496 24.8825 8.42021 24.8825 9.71747 24.8825C9.71747 24.8585 9.71747 24.8345 9.71747 24.8225C9.05683 24.7744 8.39618 24.7144 7.73554 24.6664C7.73554 24.6063 7.73554 24.5583 7.73554 24.4982C8.70849 24.4382 9.68144 24.3661 10.6184 24.3061C8.68447 24.15 6.70253 23.9939 4.7206 23.8378C4.7206 23.8018 4.7206 23.7537 4.73261 23.7177C6.00585 23.8018 7.2791 23.8738 8.54033 23.9579C8.54033 23.9338 8.54033 23.8978 8.54033 23.8738C7.80761 23.7417 7.0749 23.5976 6.30615 23.4535C6.82265 22.9852 7.44726 23.2614 8.02382 23.2374C8.16796 23.2374 8.32411 23.1653 8.46826 23.1173C8.33613 23.0092 8.21601 22.9011 8.08388 22.8171C8.04784 22.793 7.96376 22.8171 7.9037 22.805C7.84365 22.805 7.7956 22.793 7.62744 22.781C7.87968 22.745 8.03583 22.733 8.34814 22.685C7.21904 22.5889 6.2581 22.5168 5.30918 22.4448C5.30918 22.3727 5.32119 22.3007 5.32119 22.2286C6.24609 22.2767 7.17099 22.3247 8.09589 22.3727C8.09589 22.3487 8.09589 22.3247 8.09589 22.3007C6.99081 22.1806 5.88574 22.0485 4.76865 21.9284C4.76865 21.8804 4.76865 21.8324 4.76865 21.7843C6.2581 21.7843 7.75956 21.7843 9.24902 21.7843C9.24902 21.6883 9.26103 21.5802 9.26103 21.4841C7.183 21.34 5.09297 21.1959 3.01494 21.0398C3.01494 20.9918 3.01494 20.9317 3.02695 20.8837C3.54346 20.9077 4.05996 20.9678 4.57646 20.9678C5.32119 20.9557 6.06592 20.8957 6.81064 20.8477C6.82265 20.7876 6.82265 20.7156 6.83466 20.6555C6.58242 20.6075 6.34218 20.5595 6.0539 20.4994C6.88271 20.4994 7.67548 20.4994 8.48027 20.4994C9.68144 20.5715 10.8826 20.6555 12.0838 20.7276C12.0838 20.6675 12.0838 20.6195 12.0958 20.5595C10.8946 20.5354 9.68144 20.5234 8.48027 20.4994C8.30009 20.4394 8.11992 20.3673 7.93974 20.3433C7.53134 20.2833 7.12294 20.2352 6.70253 20.1872C7.42324 19.6828 8.26406 20.4154 8.99677 20.0431C8.99677 19.971 8.98476 19.899 8.98476 19.839C6.89472 19.6588 4.80468 19.4787 2.71465 19.2986C2.71465 19.2145 2.72666 19.1184 2.72666 19.0344C4.38428 19.1425 6.04189 19.2385 7.69951 19.3466C7.71152 19.2626 7.71152 19.1905 7.72353 19.1064C6.3662 18.9984 5.00888 18.9023 3.63955 18.7942C3.63955 18.7582 3.65156 18.7222 3.65156 18.6982C4.96084 18.6021 6.27011 18.494 7.57939 18.3979C7.53134 18.0617 7.35117 18.0017 5.96982 17.9416C7.84365 17.9416 9.71747 17.9416 11.5793 17.9416C11.5793 17.9176 11.5793 17.9056 11.5913 17.8816C10.3181 17.7855 9.04482 17.7014 7.7956 17.6054C7.96376 17.5934 8.14394 17.5694 8.33613 17.5573C8.33613 17.5093 8.33613 17.4613 8.32411 17.4253C7.01484 17.4253 5.71758 17.4253 4.4083 17.4253C4.4083 17.4012 4.4083 17.3652 4.4083 17.3412C4.66054 17.3412 4.91279 17.3412 5.16504 17.3412C5.16504 17.3172 5.16504 17.3052 5.16504 17.2812C4.54043 17.1731 3.9038 17.077 3.2792 16.9689C3.2792 16.9329 3.2792 16.8969 3.29121 16.8488C5.29716 16.8488 7.29111 16.8488 8.94872 16.8488C7.62744 16.7047 5.9458 16.5126 4.27617 16.3325C4.27617 16.2724 4.27617 16.2244 4.28818 16.1644C7.01484 16.2965 9.72949 16.4406 12.4561 16.5727C12.4561 16.5486 12.4561 16.5126 12.4561 16.4886C10.4502 16.2965 8.45625 16.1163 6.45029 15.9242C6.45029 15.9722 6.43828 16.0083 6.43828 16.0563C6.57041 16.0443 6.71455 16.0323 6.84667 16.0203C6.84667 15.9962 6.84667 15.9722 6.84667 15.9602C6.11396 15.9602 5.38125 15.9602 4.75664 15.9602C5.70556 15.3478 6.84668 15.8642 8.05986 15.7681C6.95478 15.612 5.96982 15.4799 5.129 15.3598C6.71455 15.3598 8.43222 15.3598 10.1619 15.3598C10.1619 15.3478 10.1739 15.3238 10.1739 15.3118C9.96972 15.2877 9.76552 15.2517 9.41718 15.2037C10.4382 15.2517 11.315 15.2998 12.1919 15.3358C12.1919 15.2998 12.1919 15.2757 12.2039 15.2397C10.4742 15.0716 8.73251 14.9035 7.00283 14.7354C7.00283 14.7113 7.00283 14.6873 7.00283 14.6633C7.5914 14.6633 8.19199 14.6633 8.78056 14.6633C8.78056 14.6513 8.78056 14.6393 8.78056 14.6273C7.03886 14.4832 5.28515 14.3391 3.54345 14.183C3.55547 14.0749 3.55547 13.9788 3.56748 13.8707C4.24014 13.9068 4.9248 13.9548 5.59746 13.9668C6.30615 13.9788 7.02685 13.9668 7.73554 13.9068C6.41425 13.7387 5.08095 13.5825 3.75966 13.4144C3.75966 13.3784 3.77168 13.3424 3.77168 13.3063C5.05693 13.3063 6.34218 13.3063 7.62744 13.3063C7.62744 13.2943 7.62744 13.2823 7.62744 13.2703C6.16201 13.1622 4.68457 13.0542 3.21914 12.9461C3.21914 12.9221 3.21914 12.8981 3.21914 12.874C4.66054 12.874 6.10195 12.874 7.54335 12.874C7.54335 12.85 7.54335 12.838 7.55536 12.814C6.94277 12.6939 6.34218 12.5738 5.72959 12.4537C5.72959 12.4057 5.72959 12.3577 5.72959 12.3096C6.28213 12.3337 6.82265 12.3577 7.37519 12.3817C7.37519 12.3457 7.3872 12.3096 7.3872 12.2736C6.41425 12.1535 5.42929 12.0334 4.45635 11.9134C4.45635 11.8653 4.45635 11.8293 4.45635 11.7813C4.70859 11.7693 4.96084 11.7452 5.21308 11.7332C5.21308 11.7092 5.22509 11.6852 5.22509 11.6732C4.55244 11.5651 3.89179 11.4691 3.21914 11.361C3.21914 11.337 3.20713 11.3009 3.20713 11.2769C3.49541 11.2769 3.7957 11.2889 4.08398 11.2769C4.58847 11.2529 5.11699 11.6132 5.62148 11.1088C5.75361 10.9767 6.16201 11.0968 6.43828 11.1208C7.05087 11.1688 7.66347 11.2289 8.30009 11.1328C6.69052 10.9407 5.06894 10.7485 3.97588 10.6164C5.05693 10.6164 6.65449 10.6164 8.14394 10.6164C6.83466 10.4723 5.40527 10.3162 4.04795 10.1721C4.01191 9.66778 3.54345 9.95598 3.36328 9.8359C4.2041 9.77585 5.06894 9.7038 6.08994 9.61975C4.62451 9.33154 3.31523 9.06736 2.00596 8.80317C4.64853 8.80317 7.30312 8.80317 9.95771 8.80317C9.95771 8.82719 9.95771 8.8512 9.95771 8.87522C8.21601 8.74313 6.47431 8.62304 4.74463 8.49095C4.74463 8.4189 4.73261 8.33484 4.73261 8.26279C5.38125 8.19074 6.04189 8.11869 6.69052 8.04664C6.69052 8.03463 6.69052 8.01061 6.69052 7.9986C5.16504 7.86651 3.65156 7.74643 1.95791 7.60232C2.21015 7.53027 2.28222 7.50626 2.37832 7.48224C1.82578 7.32613 1.30928 7.18203 1.00898 7.09797C1.88584 7.04993 2.9789 7.0019 4.07197 6.95386C4.07197 6.96587 4.07197 6.97788 4.07197 6.98989C3.90381 7.0019 3.72363 7.01391 3.55547 7.02592C3.56748 7.08596 3.57949 7.13399 3.5915 7.19403C3.96386 7.08596 4.33623 6.95387 4.70859 6.8578C4.90078 6.80976 5.10498 6.80977 5.29716 6.82177C6.02988 6.86981 6.77461 6.92985 7.51933 6.88182C6.77461 6.82177 6.01787 6.76173 5.27314 6.70169C4.79267 6.66566 4.27617 6.74972 3.84375 6.59361C2.60654 6.1493 1.32129 6.46152 0 6.19733C0.756738 6.19733 1.42939 6.19733 2.10205 6.19733C2.10205 6.17332 2.10205 6.13729 2.11406 6.11327C1.95791 6.08925 1.78975 6.06524 1.63359 6.02921C1.63359 6.01721 1.63359 5.99319 1.63359 5.98118C3.20713 5.98118 4.78066 5.98118 6.36621 5.98118C6.36621 5.94516 6.36621 5.90913 6.36621 5.8731C5.47734 5.76503 4.60049 5.65695 3.62754 5.52486C4.25215 5.52486 4.79267 5.52486 5.32119 5.52486C5.32119 5.47682 5.3332 5.41678 5.3332 5.36875C4.46836 5.2967 3.61552 5.22465 2.75068 5.1646C2.75068 5.14059 2.75068 5.10456 2.75068 5.08055C4.24013 5.08055 5.7416 5.08055 7.23105 5.08055C7.23105 5.03251 7.23105 4.97247 7.23105 4.92443C6.06592 4.84037 4.88877 4.75631 3.72363 4.68426C3.72363 4.64824 3.72363 4.62422 3.71162 4.5882C4.36025 4.55217 5.00888 4.51615 5.65752 4.46811C5.65752 4.4561 5.65752 4.44409 5.65752 4.43209C4.78066 4.37204 3.9038 4.312 3.03896 4.25196C3.02695 4.19192 3.01494 4.13187 3.00293 4.07183C3.17109 4.0238 3.32724 3.92773 3.49541 3.92773C4.33623 3.96376 5.16504 4.01179 6.00586 3.98777C4.70859 3.84367 3.42334 3.68756 2.12607 3.54346C2.12607 3.48342 2.13808 3.43538 2.13808 3.37534C4.08398 3.49543 6.04189 3.61551 7.98779 3.73559C7.98779 3.71158 7.98779 3.68756 7.9998 3.66354C6.36621 3.4594 4.74462 3.26726 3.11103 3.06312C3.11103 3.0391 3.11103 3.02709 3.11103 3.00308C3.86777 2.94304 4.62451 2.895 5.38124 2.83496C5.38124 2.85898 5.38124 2.87099 5.38124 2.895C5.16503 2.90701 4.94882 2.91902 4.73261 2.93103C4.73261 2.96705 4.73261 3.00308 4.74463 3.0391C5.50136 3.00308 6.2581 2.96705 7.00283 2.93103C7.00283 2.895 7.01484 2.84697 7.01484 2.81094C6.93076 2.78692 6.84667 2.73889 6.76259 2.72688C5.03291 2.57077 3.30322 2.42667 1.57353 2.25855C1.15312 2.22253 0.732715 2.09044 0.312305 2.00638C0.324317 1.94633 0.324315 1.88629 0.336326 1.82625C2.09004 1.94633 3.84375 2.06642 5.59746 2.1865C5.59746 2.16249 5.60947 2.13847 5.60947 2.10244C4.98486 2.03039 4.36025 1.95834 3.73564 1.88629C3.73564 1.82625 3.74765 1.77822 3.74765 1.71817C3.9999 1.71817 4.26416 1.71817 4.5164 1.71817C4.5164 1.69416 4.5164 1.67014 4.5164 1.64612C4.13203 1.57407 3.74765 1.50202 3.35127 1.41796C3.35127 1.39394 3.35127 1.38194 3.35127 1.35792C4.12002 1.40595 4.88877 1.44198 5.65752 1.49001C5.66953 1.42997 5.66953 1.35792 5.68154 1.29788C3.81972 1.08172 1.95791 0.853561 0.0960922 0.637409C0.0960922 0.613392 0.0960922 0.577367 0.0960922 0.55335C1.82578 0.661426 3.56748 0.769504 5.29716 0.87758C5.29716 0.853563 5.29717 0.817536 5.30918 0.793519C4.4083 0.721469 3.50742 0.649417 2.60654 0.577366C2.60654 0.517324 2.61855 0.469291 2.61855 0.409249C3.21914 0.433266 3.81973 0.469291 4.4083 0.493308C4.42031 0.421257 4.42031 0.349206 4.43232 0.289164C3.62754 0.217113 2.82275 0.145062 2.01797 0.073011C2.01797 0.0489941 2.01797 0.0369856 2.01797 0.0129687C2.67861 0.0129687 3.33926 -0.023056 3.98789 0.0249779C8.9247 0.361215 13.8495 0.697452 18.7863 1.0457C25.9933 1.55005 33.2004 2.06642 40.4074 2.57077C47.134 3.0391 53.8605 3.49542 60.5871 3.96376C65.3557 4.29999 70.1244 4.64824 74.905 4.97247C81.007 5.39276 87.1209 5.80105 93.2349 6.23336C97.5231 6.53357 101.823 6.83378 106.111 7.13399C107.493 7.23006 108.862 7.31412 110.243 7.39818C110.46 7.41019 110.664 7.44621 110.868 7.57831C110.412 7.57831 109.955 7.57831 109.499 7.57831C109.499 7.59031 109.499 7.61433 109.487 7.62634C109.655 7.67437 109.823 7.7104 109.979 7.75843C109.979 7.79446 109.979 7.81847 109.979 7.8545C109.403 7.9986 108.826 8.1427 108.165 8.31082C109.186 8.38287 110.147 8.44291 111.108 8.51497C111.108 8.57501 111.108 8.64706 111.096 8.7071C110.183 8.7071 109.271 8.7071 108.358 8.7071C108.358 8.73112 108.358 8.74313 108.346 8.76714C108.466 8.79116 108.574 8.8512 108.694 8.8512C109.955 8.74313 111.024 9.60774 112.297 9.46364C112.297 9.52368 112.285 9.58372 112.285 9.63175C111.661 9.60774 111.036 9.57171 110.424 9.54769C110.412 9.60774 110.412 9.66778 110.4 9.71581C111.072 9.78786 111.745 9.84791 112.43 9.91996C112.43 9.96799 112.418 10.016 112.418 10.0761C111.817 10.0761 111.228 10.0761 110.688 10.0761C111.529 10.3523 112.37 10.9407 113.415 10.7005C113.403 10.7606 113.403 10.8326 113.391 10.8926C111.829 10.8926 110.267 10.8926 108.706 10.8926C108.706 10.9407 108.706 10.9887 108.706 11.0247C109.703 11.1448 110.7 11.2649 111.505 11.373C110.364 11.373 109.03 11.373 108.213 11.373C109.571 11.5291 111.421 11.7573 113.27 11.9734C113.27 12.0334 113.258 12.0935 113.258 12.1535C112.466 12.1535 111.661 12.1535 110.868 12.1535C110.868 12.1776 110.856 12.2136 110.856 12.2376C110.964 12.2736 111.084 12.3096 111.216 12.3577C110.808 12.3817 110.412 12.4057 110.027 12.4297C110.027 12.4537 110.027 12.4778 110.015 12.5018C110.568 12.5498 111.132 12.6099 111.685 12.6579C111.685 12.6819 111.685 12.7179 111.685 12.7419C111.493 12.754 111.313 12.778 111.12 12.79C111.12 12.802 111.12 12.814 111.12 12.826C111.985 12.9341 112.85 13.0422 113.727 13.1502C113.727 13.1863 113.727 13.2343 113.727 13.2703C112.946 13.2703 112.081 13.0542 111.409 13.3304C110.604 13.6546 109.847 13.4865 109.078 13.5585C109.078 13.6186 109.066 13.6666 109.066 13.7266C110.448 13.8948 111.841 14.0629 113.222 14.231C113.222 14.255 113.21 14.291 113.21 14.3151C111.553 14.3151 109.895 14.3151 108.238 14.3151C108.238 14.3031 108.238 14.291 108.226 14.279C108.43 14.303 108.622 14.3391 108.826 14.3631C109.739 14.4712 110.652 14.5792 111.469 14.6633C111.385 14.7474 111.204 14.9155 111.024 15.0836C111.793 15.1436 112.55 15.2157 113.318 15.2757C113.318 15.3358 113.318 15.3838 113.306 15.4439C112.934 15.4198 112.55 15.4078 112.177 15.3838C112.177 15.4078 112.165 15.4318 112.165 15.4679C112.526 15.5519 112.886 15.624 113.21 15.696C112.37 15.696 111.493 15.696 110.628 15.696C110.628 15.708 110.628 15.72 110.628 15.7321C111.601 15.8521 112.574 15.9722 113.547 16.0923C113.547 16.1283 113.535 16.1644 113.535 16.2004C112.898 16.1644 112.249 16.1283 111.613 16.0923C111.601 16.1644 111.589 16.2244 111.577 16.2965C112.237 16.4406 112.898 16.5727 113.559 16.7168C113.559 16.7528 113.559 16.7888 113.559 16.8128C112.67 16.8128 111.793 16.8128 110.904 16.8128C110.904 16.8488 110.904 16.8849 110.904 16.9329C111.829 16.9929 112.742 17.053 113.667 17.113C113.667 17.1491 113.667 17.1971 113.667 17.2331C113.379 17.2571 113.102 17.2812 112.814 17.3052C112.802 17.3652 112.79 17.4253 112.778 17.4853C113.054 17.5453 113.318 17.6054 113.511 17.6414C112.742 17.7375 111.889 17.8576 110.964 17.9776C111.373 18.0857 111.841 17.9656 111.997 18.494C112.021 18.5901 112.406 18.5781 112.622 18.6021C113.066 18.6501 113.523 18.6741 114.123 18.7222C113.463 18.8903 112.97 19.0224 112.478 19.1545C112.478 19.1905 112.478 19.2385 112.49 19.2746C113.006 19.2746 113.535 19.2746 114.051 19.2746C114.051 19.3466 114.039 19.4187 114.039 19.4787C113.487 19.4427 112.922 19.3946 112.502 19.3586C112.838 19.5748 113.246 19.839 113.655 20.1031C113.523 20.1632 113.391 20.2232 113.258 20.2833C113.258 20.3313 113.258 20.3793 113.258 20.4274C113.607 20.4874 113.955 20.5475 114.303 20.5955C114.303 20.6195 114.291 20.6315 114.291 20.6555C112.994 20.6555 111.697 20.6555 110.712 20.6555C111.373 20.7876 112.346 20.9798 113.318 21.1719C113.318 21.2199 113.306 21.268 113.306 21.304C112.021 21.2199 110.736 21.1359 109.439 21.0518C109.439 21.0758 109.439 21.0998 109.427 21.1239C111.132 21.328 112.85 21.5201 114.556 21.7243C114.568 21.7243 114.568 21.7963 114.592 21.9044C112.958 21.9044 111.337 21.9044 109.547 21.9044C110.832 22.1206 111.937 22.3007 113.042 22.4808C113.042 22.4928 113.042 22.5168 113.03 22.5289C112.237 22.4808 111.445 22.4448 110.652 22.3968C110.652 22.4688 110.64 22.5289 110.64 22.6009C111.937 22.685 113.222 22.781 114.52 22.8651C114.52 22.8771 114.52 22.9011 114.52 22.9131C114.315 22.9251 114.099 22.9371 113.895 22.9492C113.895 22.9852 113.883 23.0212 113.883 23.0692C114.436 23.1413 114.988 23.2013 115.541 23.2734C115.541 23.2854 115.541 23.3094 115.541 23.3214C114.243 23.3214 112.934 23.3214 111.637 23.3214C111.733 23.8978 112.165 23.8018 112.538 23.8138C112.934 23.8258 113.33 23.8498 113.739 23.9699C113.631 24.0059 113.523 24.0419 113.415 24.0779C113.871 24.2341 114.327 24.4022 114.784 24.5583C114.027 24.6664 113.162 24.2701 112.478 25.0747C112.994 25.2188 113.535 25.3629 114.147 25.531C113.823 25.591 113.583 25.639 113.342 25.6751C113.342 25.7351 113.342 25.7952 113.354 25.8432C114.279 25.9273 115.192 26.0233 116.081 26.1074C114.363 26.6117 112.61 26.1074 110.868 26.0954C110.7 26.0954 110.532 26.0954 110.352 26.1434C111.997 26.3115 113.631 26.4676 115.276 26.6358C115.276 26.6718 115.276 26.7078 115.276 26.7318C114.339 26.7318 113.403 26.7318 112.466 26.7318C112.454 26.8039 112.454 26.8759 112.442 26.948C113.547 27.0921 114.664 27.2362 115.673 27.3563C115.108 27.3563 114.436 27.3563 113.763 27.3563C113.763 27.3683 113.763 27.3923 113.763 27.4043C114.195 27.4884 114.616 27.5844 115.132 27.6805C114.58 27.6805 114.111 27.6805 113.643 27.6805C113.631 27.7285 113.631 27.7645 113.619 27.8126C113.955 27.8606 114.291 27.9087 114.64 27.9567C114.64 28.0047 114.64 28.0528 114.64 28.1128C114.303 28.1488 113.955 28.1728 113.619 28.2089C113.619 28.2689 113.619 28.3289 113.619 28.389C114.604 28.449 115.589 28.5091 116.586 28.5811C116.586 28.6412 116.574 28.6892 116.574 28.7492C114.291 28.6171 111.997 28.4971 109.715 28.365C109.715 28.425 109.715 28.473 109.703 28.5331C111.216 28.6412 112.718 28.7612 114.279 28.8813C114.147 28.9174 114.075 28.9294 114.003 28.9534C114.003 28.9894 114.003 29.0134 114.003 29.0495C114.339 29.0254 114.676 28.9774 115.012 28.9774C115.3 28.9774 115.601 29.0374 115.889 29.0615C115.877 29.1335 115.877 29.2176 115.865 29.2896C115.589 29.2896 115.3 29.2896 115.024 29.2896C115.024 29.3256 115.024 29.3617 115.024 29.3857C115.288 29.4457 115.553 29.5058 115.817 29.5658C115.817 29.6018 115.817 29.6499 115.805 29.6859C114.183 29.5898 112.562 29.4938 110.94 29.3977C110.94 29.4577 110.928 29.5178 110.928 29.5778C112.586 29.6859 114.243 29.806 115.901 29.9141C115.901 29.9381 115.901 29.9621 115.889 29.9861C115.144 30.1542 114.4 30.3344 113.655 30.5025C113.667 30.5505 113.667 30.5985 113.679 30.6466C114.087 30.7186 114.484 30.8027 114.892 30.8747C114.892 30.8988 114.892 30.9108 114.892 30.9348C114.532 30.9348 114.171 30.9348 113.811 30.9348C113.811 30.9708 113.811 31.0068 113.811 31.0309C114.303 31.0549 114.796 31.0789 115.288 31.1029C115.288 31.1389 115.3 31.187 115.3 31.223C114.94 31.247 114.58 31.283 114.231 31.307C114.219 31.3671 114.219 31.4271 114.207 31.4752C114.844 31.5953 115.493 31.7033 116.225 31.8354C115.24 31.8955 114.351 31.9435 113.463 31.9915C113.463 32.0276 113.451 32.0636 113.451 32.0996C114.303 32.2197 115.156 32.3158 116.009 32.4599C116.189 32.4839 116.345 32.64 116.514 32.7361C116.345 32.8441 116.177 32.9762 115.997 33.0603C115.889 33.1083 115.745 33.1083 115.601 33.2404C115.913 33.2884 116.225 33.3365 116.55 33.3845C116.55 33.4085 116.538 33.4205 116.538 33.4446C115.24 33.4446 113.955 33.4446 112.586 33.4446C112.934 33.4806 113.222 33.4926 113.499 33.5646C114.255 33.7328 115.012 33.9609 115.781 34.117C116.213 34.2011 116.646 34.2131 117.09 34.2611C117.306 34.2851 117.511 34.2972 117.727 34.4413C117.114 34.4413 116.514 34.4413 115.901 34.4413C115.889 34.5013 115.889 34.5493 115.877 34.6094C116.189 34.6814 116.502 34.7415 116.814 34.8135C116.814 34.8375 116.802 34.8616 116.802 34.8856C116.514 34.9216 116.237 34.9576 115.949 35.0057C115.661 35.0537 115.384 35.1017 114.952 35.1858C115.673 35.2578 116.261 35.3059 116.862 35.3659C116.862 35.3899 116.862 35.4259 116.85 35.45C116.297 35.498 115.733 35.546 115.036 35.6181C115.433 35.6901 115.697 35.7382 115.961 35.7862C115.961 35.8222 115.949 35.8583 115.949 35.8943C115.336 35.8583 114.712 35.8342 114.099 35.7982C114.099 35.8222 114.087 35.8583 114.087 35.8823C115.084 36.0864 116.081 36.2906 117.078 36.4947C117.078 36.5307 117.078 36.5547 117.078 36.5908C115.457 36.4827 113.835 36.3626 112.201 36.2545C112.201 36.2906 112.201 36.3266 112.189 36.3626C112.922 36.4106 113.655 36.4467 114.375 36.5187C114.748 36.5547 115.216 36.4587 115.228 37.0951C115.228 37.1792 115.481 37.2633 115.613 37.3473C115.24 37.3833 114.928 37.3593 114.616 37.3353C113.451 37.2632 112.285 37.1912 111.132 37.1071C111.132 37.1792 111.132 37.2632 111.12 37.3353C112.285 37.3353 113.451 37.3353 114.616 37.3353ZM93.0307 32.0516C93.0667 31.8114 93.0667 31.5592 93.1388 31.3191C93.9676 28.1969 94.8084 25.0747 95.6613 21.9524C96.3579 19.3466 97.0786 16.7528 97.7753 14.1469C98.0035 13.3184 97.9074 13.1622 97.0426 13.0902C95.0487 12.9341 93.0547 12.802 91.0608 12.6339C90.5082 12.5858 90.256 12.802 90.1359 13.3184C89.9437 14.1349 89.6914 14.9395 89.4752 15.7441C88.166 20.7036 86.8206 25.6511 85.5594 30.6226C85.0069 32.7961 85.8957 34.6214 87.8657 35.7021C89.9797 36.867 92.2619 37.1071 94.6042 36.927C97.439 36.7109 100.802 35.1257 101.859 31.1389C103.301 25.6631 104.862 20.2112 106.364 14.7474C106.556 14.0389 106.376 13.7867 105.643 13.7266C103.709 13.5705 101.775 13.4264 99.8413 13.2703C98.9885 13.2103 98.8924 13.2703 98.6642 14.0989C97.3789 18.8302 96.0937 23.5736 94.7844 28.3049C94.4721 29.4217 94.1238 30.5145 93.7634 31.6193C93.6793 31.9555 93.5232 32.2317 93.0307 32.0516ZM47.9267 29.1575C47.7345 30.1903 47.5423 31.187 47.3862 32.1957C47.2661 32.9522 47.4342 33.1443 48.167 33.2044C50.1969 33.3605 52.2389 33.5046 54.2689 33.6607C54.8935 33.7087 55.1217 33.5286 55.1818 32.9042C55.35 31.211 55.5181 29.5178 55.6863 27.8366C56.0707 24.0419 56.455 20.2352 56.8394 16.4406C57.0196 14.5913 57.1998 12.7419 57.3919 10.8926C57.452 10.3643 57.2358 10.1001 56.7073 10.0761C56.1908 10.052 55.6743 10.004 55.1458 9.96799C52.6353 9.78786 50.1249 9.59573 47.6024 9.40359C47.158 9.36757 46.8697 9.46364 46.6655 9.93197C43.6145 17.053 40.5515 24.174 37.4885 31.295C37.1522 32.0876 37.3084 32.3878 38.1372 32.4599C40.2272 32.628 42.3293 32.7721 44.4193 32.9282C44.8397 32.9642 45.104 32.7961 45.2481 32.3878C45.5364 31.5952 45.8367 30.8147 46.137 30.0341C46.5694 28.8573 46.5934 28.8453 47.9267 29.1575ZM80.6346 20.7036C80.9109 19.6708 81.1511 18.7102 81.4394 17.7615C81.4754 17.6414 81.7397 17.5213 81.8958 17.5333C83.049 17.6054 84.2141 17.6894 85.3672 17.7975C85.8957 17.8456 86.196 17.6654 86.3282 17.1371C86.6645 15.8642 87.0248 14.6033 87.3732 13.3304C87.5654 12.6219 87.3612 12.3577 86.6525 12.2976C83.121 12.0334 79.5896 11.7813 76.0581 11.5051C75.5296 11.4691 75.2293 11.6252 75.0972 12.1535C74.8209 13.2343 74.5086 14.3031 74.2084 15.3838C72.5387 21.5081 70.8691 27.6204 69.2115 33.7448C69.0073 34.5133 69.1394 34.7295 69.9322 34.7895C71.9021 34.9456 73.884 35.0777 75.854 35.2458C76.4425 35.2939 76.7068 35.0897 76.8629 34.5253C77.5716 31.8234 78.3404 29.1335 79.0611 26.4316C79.1572 26.0714 79.3013 25.9393 79.6737 25.9753C80.6106 26.0714 81.5475 26.1074 82.4844 26.2034C83.049 26.2635 83.3853 26.0954 83.5294 25.507C83.8297 24.3301 84.1661 23.1533 84.4784 21.9765C84.6826 21.2199 84.4784 20.9678 83.6736 20.9197C82.6766 20.8717 81.6796 20.7876 80.6346 20.7036ZM64.3467 34.4052C64.9473 34.5493 65.1515 34.141 65.2957 33.5887C67.2295 26.4556 69.1874 19.3346 71.1333 12.2016C71.3616 11.385 71.1814 11.1448 70.3406 11.0848C68.4307 10.9407 66.5088 10.7966 64.599 10.6405C63.8182 10.5804 63.6861 10.6645 63.4699 11.457C62.557 14.7834 61.6441 18.1217 60.7432 21.4481C59.7102 25.2428 58.6652 29.0374 57.6322 32.8321C57.428 33.5887 57.5841 33.8769 58.2448 33.9369C60.2507 34.093 62.2687 34.2491 64.3467 34.4052ZM113.342 37.6595C113.33 37.6956 113.318 37.7436 113.318 37.7796C114.039 37.8156 114.76 37.8637 115.469 37.8997C115.469 37.8637 115.469 37.8276 115.469 37.8036C114.76 37.7676 114.051 37.7196 113.342 37.6595ZM111.132 24.9546C111.132 24.9185 111.144 24.8705 111.144 24.8345C110.412 24.7864 109.691 24.7384 108.958 24.6904C108.958 24.7264 108.958 24.7624 108.946 24.7985C109.679 24.8465 110.412 24.8945 111.132 24.9546Z" fill="#FF0000"/>
<path d="M8.2999 34.1049C7.65127 34.1049 7.00264 34.1049 6.354 34.1049C6.354 34.0088 6.36602 33.9127 6.36602 33.8286C7.02666 33.9247 7.66328 34.0088 8.2999 34.1049C8.31191 34.1049 8.2999 34.1049 8.2999 34.1049Z" fill="black"/>
<path d="M4.0958 27.104C4.76846 27.104 5.45312 27.104 6.12578 27.104C6.12578 27.128 6.12578 27.1641 6.12578 27.1881C5.44111 27.1881 4.75644 27.1881 4.07178 27.1881C4.08379 27.1641 4.0958 27.14 4.0958 27.104Z" fill="black"/>
<path d="M7.95166 31.3912C7.72344 31.3912 7.49521 31.3912 7.26699 31.3912C7.25498 31.4152 7.25498 31.4513 7.24297 31.4753C7.35107 31.5233 7.45918 31.5714 7.67539 31.6675C7.24297 31.6675 6.91865 31.6675 6.60635 31.6675C6.59433 31.6314 6.58232 31.6074 6.57031 31.5714C7.02676 31.4633 7.47119 31.3552 7.92763 31.2471C7.92763 31.2951 7.93965 31.3432 7.95166 31.3912Z" fill="black"/>
<path d="M49.6563 19.911C49.4521 21.28 49.2359 22.649 49.0197 24.0419C48.6594 24.0419 48.3351 24.0419 47.8906 24.0419C48.4552 22.6129 48.9957 21.244 49.5482 19.875C49.5843 19.887 49.6203 19.899 49.6563 19.911Z" fill="#FF050D"/>
<path fill-rule="evenodd" clip-rule="evenodd" d="M12.3451 29.0846C12.4388 28.3586 12.6124 27.0161 12.7212 26.1815C13.1679 22.8814 13.6378 19.5874 14.1078 16.2929C14.51 13.4735 14.9122 10.6538 15.3 7.82959C15.4081 7.06105 15.5762 6.91694 16.357 6.97699C18.1828 7.12109 20.0206 7.26519 21.8584 7.40929C22.7713 7.48134 22.9154 7.64946 22.7592 8.52608C22.5945 9.48953 22.4185 10.4473 22.2428 11.4034L22.2426 11.4042C22.1621 11.8421 22.0817 12.2795 22.0025 12.717C21.7392 14.1646 21.476 15.6241 21.2127 17.0836L21.2127 17.0837L21.2127 17.0838L21.2126 17.084L21.2126 17.0841L21.2126 17.0842L21.2126 17.0843L21.2126 17.0845L21.2125 17.0846L21.2125 17.0847L21.2097 17.1001C21.3419 16.9921 21.4019 16.872 21.45 16.7399C22.026 15.3482 22.605 13.9566 23.184 12.565L23.1857 12.5609L23.1873 12.5569C23.7663 11.1653 24.3453 9.77362 24.9213 8.38198C25.1135 7.93767 25.3418 7.63745 25.8943 7.68549C26.9512 7.76954 28.0081 7.84759 29.0651 7.92563L29.0654 7.92566L29.0657 7.92568C30.1227 8.00373 31.1796 8.08178 32.2365 8.16583C32.8371 8.21386 33.0533 8.49006 32.9452 9.09048C32.783 10.0331 32.6179 10.9788 32.4527 11.9244C32.2875 12.8701 32.1224 13.8158 31.9602 14.7585C31.8641 15.2929 31.771 15.8302 31.6779 16.3676C31.5849 16.905 31.4918 17.4424 31.3957 17.9767C31.5398 17.8807 31.5999 17.7486 31.6479 17.6285C31.9141 16.9875 32.181 16.3459 32.448 15.7039C33.3617 13.5071 34.2777 11.3048 35.1794 9.10249C35.3836 8.62215 35.6598 8.43001 36.1883 8.47805C37.329 8.57128 38.4739 8.65167 39.618 8.73199L39.6184 8.73202C40.3898 8.78618 41.1609 8.84032 41.9299 8.89834C42.7227 8.95838 42.9149 9.24659 42.6026 10.0031C41.3931 12.9588 40.1816 15.9144 38.9697 18.871L38.9691 18.8725L38.9685 18.874L38.9679 18.8755L38.9673 18.877L38.9666 18.8785L38.966 18.88L38.9654 18.8815L38.9648 18.883L38.9642 18.8845C37.2532 23.0586 35.5416 27.2343 33.834 31.4142C33.6539 31.8585 33.3896 32.0267 32.9212 31.9906C31.4005 31.8682 29.8799 31.7586 28.3593 31.6491L28.3591 31.6491L28.3589 31.6491L28.3587 31.6491L28.3585 31.6491L28.3582 31.6491L28.358 31.6491L28.3578 31.6491L28.3576 31.649L28.3574 31.649C27.3442 31.576 26.331 31.5031 25.3177 31.4262C24.4048 31.3542 24.3568 31.3062 24.4289 30.4055C24.6133 27.9513 24.8198 25.4971 25.0272 23.0322L25.0535 22.7201C25.0175 22.798 24.9785 22.8759 24.9396 22.9538L24.9395 22.954L24.9394 22.9541L24.9394 22.9543L24.9393 22.9544L24.9392 22.9545L24.9392 22.9547C24.9002 23.0326 24.8612 23.1105 24.8253 23.1884C24.5464 23.8252 24.2667 24.4629 23.9868 25.101L23.9844 25.1063C23.2042 26.8849 22.4227 28.6665 21.6542 30.4415C21.474 30.8618 21.2458 31.138 20.7173 31.102C18.1227 30.8979 15.5282 30.7057 12.9337 30.5136C12.4412 30.4776 12.201 30.2374 12.261 29.733C12.273 29.625 12.288 29.5169 12.303 29.4088L12.3031 29.4086L12.3031 29.4085C12.3181 29.3006 12.3331 29.1925 12.3451 29.0846ZM93.0518 32.0147C93.0639 31.9337 93.072 31.8515 93.0801 31.7688C93.096 31.6059 93.1121 31.4414 93.1599 31.2821C93.9887 28.1599 94.8295 25.0377 95.6823 21.9155C96.0307 20.6126 96.385 19.3127 96.7394 18.0128C97.0937 16.7129 97.4481 15.4129 97.7964 14.11C98.0246 13.2814 97.9285 13.1253 97.0637 13.0533C96.2661 12.9908 95.4685 12.9322 94.6709 12.8736C93.4745 12.7857 92.2782 12.6978 91.0818 12.597C90.5293 12.5489 90.2771 12.7651 90.157 13.2814C90.0344 13.8021 89.8875 14.3179 89.741 14.832L89.741 14.8321L89.7409 14.8322L89.7409 14.8323L89.7408 14.8325L89.7407 14.8327C89.6576 15.1246 89.5746 15.4159 89.4963 15.7071C89.1019 17.2012 88.7042 18.6942 88.3065 20.1871L88.3055 20.1908L88.305 20.1927L88.3045 20.1946L88.304 20.1965L88.3035 20.1984L88.303 20.2002L88.3025 20.2021L88.3018 20.2046C87.381 23.6614 86.4603 27.1177 85.5805 30.5856C85.028 32.7592 85.9168 34.5845 87.8867 35.6652C90.0008 36.8301 92.283 37.0702 94.6253 36.8901C97.4601 36.6739 100.823 35.0888 101.88 31.102C102.841 27.4519 103.855 23.8124 104.87 20.173L104.87 20.1716C105.377 18.3517 105.884 16.5317 106.385 14.7104C106.577 14.0019 106.397 13.7498 105.664 13.6897C104.698 13.6117 103.731 13.5367 102.765 13.4617L102.763 13.4615C101.796 13.3865 100.829 13.3115 99.8624 13.2334C99.0096 13.1734 98.9135 13.2334 98.6853 14.062C98.5497 14.561 98.4141 15.0602 98.2785 15.5595L98.2735 15.5781L98.2721 15.5831C97.1243 19.8096 95.9745 24.0436 94.8055 28.268C94.4932 29.3848 94.1448 30.4776 93.7845 31.5823C93.7004 31.9186 93.5443 32.1948 93.0518 32.0147ZM47.8636 29.5713L47.8615 29.5825C47.6988 30.4523 47.54 31.3012 47.4073 32.1588C47.2872 32.9153 47.4553 33.1074 48.188 33.1675C49.2029 33.2455 50.2207 33.3206 51.2385 33.3956L51.239 33.3956C52.257 33.4707 53.275 33.5457 54.29 33.6238C54.9146 33.6718 55.1428 33.4917 55.2029 32.8673L55.2089 32.8063L55.2093 32.8028L55.2093 32.8023L55.2094 32.8019L55.2094 32.8014L55.2095 32.801L55.2095 32.8006L55.2095 32.8001L55.2096 32.7997L55.2096 32.7992C55.3755 31.1287 55.5414 29.4583 55.7074 27.7997C55.8993 25.9047 56.0913 24.0067 56.2832 22.1088L56.2836 22.1052L56.2839 22.1017C56.4761 20.2013 56.6683 18.301 56.8605 16.4036C57.0407 14.5543 57.2208 12.705 57.413 10.8557C57.4731 10.3274 57.2569 10.0632 56.7284 10.0391C56.3927 10.0235 56.057 9.99779 55.7181 9.97178L55.7179 9.97177C55.5353 9.95776 55.3518 9.94368 55.1668 9.93107C52.8342 9.76371 50.5016 9.58597 48.1594 9.40751L47.6235 9.36668C47.179 9.33065 46.8908 9.42672 46.6866 9.89505C43.6385 17.0094 40.5783 24.1238 37.5182 31.2381L37.516 31.2433L37.5144 31.247L37.5128 31.2507L37.5112 31.2544L37.5096 31.2581C37.1733 32.0507 37.3294 32.3509 38.1583 32.4229C39.5351 32.5337 40.9171 32.634 42.2975 32.7342L42.2989 32.7343L42.3 32.7344C43.0142 32.7862 43.728 32.8381 44.4404 32.8913C44.8608 32.9273 45.125 32.7592 45.2692 32.3509C45.5575 31.5583 45.8578 30.7778 46.1581 29.9972C46.5905 28.8204 46.6145 28.8084 47.9478 29.1206C47.9328 29.201 47.9179 29.2812 47.9029 29.3612L47.8636 29.5713ZM80.6557 20.6666C80.7247 20.4086 80.7915 20.155 80.8574 19.905C81.055 19.1545 81.2442 18.4362 81.4605 17.7246C81.4965 17.6045 81.7608 17.4844 81.9169 17.4964C83.07 17.5685 84.2352 17.6525 85.3883 17.7606C85.9168 17.8086 86.2171 17.6285 86.3492 17.1001C86.5647 16.2847 86.79 15.4741 87.0157 14.6622L87.0164 14.6599C87.1428 14.2052 87.2693 13.7501 87.3943 13.2934C87.5864 12.5849 87.3822 12.3208 86.6736 12.2607C85.4962 12.1726 84.3188 12.0859 83.1414 11.9991C80.7873 11.8257 78.4333 11.6523 76.0792 11.4682C75.5507 11.4321 75.2504 11.5882 75.1183 12.1166C74.9196 12.8939 74.7023 13.665 74.4842 14.4388C74.399 14.7409 74.3137 15.0434 74.2294 15.3469C73.935 16.4268 73.6406 17.5063 73.3463 18.5856L73.3461 18.5863L73.3456 18.5881L73.3451 18.5899L73.3447 18.5916L73.3442 18.5934C71.97 23.6324 70.5972 28.666 69.2326 33.7078C69.0284 34.4764 69.1605 34.6925 69.9533 34.7526C70.745 34.8153 71.5387 34.8742 72.3327 34.9331L72.3333 34.9331L72.3339 34.9332L72.3345 34.9332L72.3352 34.9333L72.3358 34.9333L72.3364 34.9333L72.337 34.9334L72.3376 34.9334L72.3382 34.9335C73.518 35.021 74.6987 35.1085 75.875 35.2089C76.4636 35.2569 76.7279 35.0528 76.884 34.4884C77.2749 32.9983 77.684 31.5118 78.0933 30.0249L78.0935 30.0242L78.0937 30.0234L78.0939 30.0227L78.0941 30.0219L78.0943 30.0211L78.0945 30.0204L78.0947 30.0196L78.0949 30.0189L78.0951 30.0181C78.4273 28.8113 78.7595 27.6042 79.0821 26.3947C79.1782 26.0344 79.3224 25.9023 79.6948 25.9384C80.1632 25.9864 80.6317 26.0194 81.1001 26.0524L81.1005 26.0525C81.5688 26.0855 82.0371 26.1185 82.5055 26.1665C83.07 26.2266 83.4064 26.0584 83.5505 25.47C83.7307 24.764 83.9238 24.058 84.1169 23.3519C84.2457 22.8811 84.3745 22.4103 84.4994 21.9395C84.7036 21.183 84.4994 20.9308 83.6946 20.8828C82.7947 20.8394 81.8949 20.7667 80.9596 20.6912C80.8587 20.683 80.7574 20.6748 80.6557 20.6666ZM64.3678 34.3683C64.9684 34.5124 65.1726 34.1041 65.3167 33.5517C66.5563 28.9797 67.8057 24.4125 69.0555 19.844C69.7556 17.285 70.4558 14.7256 71.1544 12.1646C71.3827 11.3481 71.2025 11.1079 70.3616 11.0479L69.9861 11.0195L69.9857 11.0195L69.9852 11.0195L69.9848 11.0194L69.9844 11.0194L69.9839 11.0194L69.9835 11.0193L69.9831 11.0193L69.9826 11.0193L69.9822 11.0192C68.1974 10.8846 66.4035 10.7493 64.6201 10.6035C63.8393 10.5435 63.7072 10.6276 63.491 11.4201C62.5781 14.7465 61.6652 18.0848 60.7643 21.4112C60.2478 23.3085 59.7283 25.2058 59.2088 27.1032C58.6893 29.0005 58.1698 30.8979 57.6533 32.7952C57.4491 33.5517 57.6052 33.8399 58.2659 33.9C60.2718 34.0561 62.2898 34.2122 64.3678 34.3683ZM49.6775 19.8741C49.5219 20.9174 49.3593 21.9607 49.195 23.0146C49.1437 23.3436 49.0923 23.6736 49.0409 24.005H47.9118L47.9538 23.8986L47.9555 23.8943C48.5043 22.5052 49.0311 21.1716 49.5694 19.8381L49.6775 19.8741Z" fill="white"/>
</svg>
