<svg
          width="24"
          height="24"
          viewBox="0 0 24 24"
          fill=""
          xmlns="http://www.w3.org/2000/svg"
          class="contact__icon hide-cursor"
        >
          <path
            d="M10.1383 10.8101C9.55146 10.8101 9.08914 11.3351 9.08914 11.9761C9.08914 12.6149 9.56229 13.1422 10.1383 13.1422C10.724 13.1422 11.1863 12.6149 11.1863 11.9761C11.1983 11.3339 10.724 10.8101 10.1383 10.8101ZM13.8931 10.8101C13.3063 10.8101 12.844 11.3351 12.844 11.9761C12.844 12.6149 13.3171 13.1422 13.8931 13.1422C14.4789 13.1422 14.9412 12.6149 14.9412 11.9761C14.9401 11.3339 14.4789 10.8101 13.8931 10.8101Z"
            fill="black"
          />
          <path
            d="M18.892 2H5.10803C3.94629 2 3 2.966 3 4.163V18.359C3 19.556 3.94629 20.522 5.10803 20.522H16.772L16.2253 18.5778L17.5429 19.8279L18.7869 21.0039L21 23V4.163C21 2.966 20.0537 2 18.892 2ZM14.9206 15.713C14.9206 15.713 14.5503 15.262 14.2428 14.8608C15.5897 14.4718 16.104 13.6119 16.104 13.6119C15.6817 13.8948 15.2811 14.096 14.9206 14.233C14.4063 14.4519 13.9137 14.5989 13.4297 14.684C12.4423 14.8719 11.5371 14.8199 10.7652 14.6729C10.1794 14.5569 9.67597 14.3889 9.25371 14.2198C9.01768 14.1258 8.75892 14.012 8.5034 13.865C8.472 13.8418 8.44168 13.8329 8.41137 13.8119C8.38971 13.8009 8.37997 13.7909 8.36914 13.7788C8.184 13.6749 8.08114 13.6019 8.08114 13.6019C8.08114 13.6019 8.57486 14.4419 9.88168 14.8409C9.57311 15.2388 9.192 15.713 9.192 15.713C6.9194 15.6389 6.05648 14.117 6.05648 14.117C6.05648 10.736 7.53762 7.99605 7.53762 7.99605C9.01877 6.86095 10.4274 6.893 10.4274 6.893L10.5302 7.019C8.6788 7.5661 7.82454 8.39505 7.82454 8.39505C7.82454 8.39505 8.05191 8.26905 8.43194 8.0911C9.53197 7.59816 10.4057 7.4611 10.7663 7.42905C10.828 7.4191 10.8799 7.40805 10.9417 7.40805C11.5696 7.32405 12.2788 7.30305 13.0183 7.38705C13.996 7.5031 15.0462 7.7971 16.1148 8.39505C16.1148 8.39505 15.3017 7.6081 13.5531 7.0621L13.6971 6.8941C13.6971 6.8941 15.1068 6.86205 16.5869 7.99716C16.5869 7.99716 18.068 10.7371 18.068 14.1181C18.068 14.1181 17.1943 15.6389 14.9206 15.713Z"
            fill="black"
          />
        </svg>