<svg
          width="24"
          height="24"
          viewBox="0 0 24 24"
          fill="none"
          xmlns="http://www.w3.org/2000/svg"
          class="contact__icon hide-cursor"
        >
          <path
            fill-rule="evenodd"
            clip-rule="evenodd"
            d="M3 12C3 8.73081 3 7.09621 3.67277 5.86413C4.17807 4.93873 4.93873 4.17807 5.86413 3.67277C7.09621 3 8.73081 3 12 3C15.2692 3 16.9038 3 18.1359 3.67277C19.0613 4.17807 19.8219 4.93873 20.3272 5.86413C21 7.09621 21 8.73081 21 12C21 15.2692 21 16.9038 20.3272 18.1359C19.8219 19.0613 19.0613 19.8219 18.1359 20.3272C16.9038 21 15.2692 21 12 21C8.73081 21 7.09621 21 5.86413 20.3272C4.93873 19.8219 4.17807 19.0613 3.67277 18.1359C3 16.9038 3 15.2692 3 12ZM12 7.23529C9.36868 7.23529 7.23528 9.36869 7.23528 12C7.23528 14.6313 9.36868 16.7647 12 16.7647C14.6313 16.7647 16.7647 14.6313 16.7647 12C16.7647 9.36869 14.6313 7.23529 12 7.23529ZM12 14.9779C10.3585 14.9779 9.02205 13.6414 9.02205 12C9.02205 10.3574 10.3585 9.02206 12 9.02206C13.6414 9.02206 14.9779 10.3574 14.9779 12C14.9779 13.6414 13.6414 14.9779 12 14.9779ZM17.757 6.87792C17.757 7.22857 17.4727 7.51282 17.1221 7.51282C16.7715 7.51282 16.4872 7.22857 16.4872 6.87792C16.4872 6.52728 16.7715 6.24303 17.1221 6.24303C17.4727 6.24303 17.757 6.52728 17.757 6.87792Z"
            fill="black"
          />
        </svg>