<svg
          width="24"
          height="24"
          viewBox="0 0 24 24"
          fill="none"
          xmlns="http://www.w3.org/2000/svg"
          class="contact__icon hide-cursor"
        >
          <path
            fill-rule="evenodd"
            clip-rule="evenodd"
            d="M5 3C3.89543 3 3 3.89543 3 5V19C3 20.1046 3.89543 21 5 21H19C20.1046 21 21 20.1046 21 19V5C21 3.89543 20.1046 3 19 3H5ZM5.54531 16.6617L7.08516 14.7V8.66719L5.72461 7.05352V6.80039H9.41602L12.2426 13.0125L14.7738 6.80039H18.2437V7.05352L17.1258 8.09766V15.5859L18.2437 16.6617V16.8832H13.2129V16.6617L14.3625 15.5859V9.6375L11.557 16.8832H11.093L7.81289 9.6375V14.7L9.34219 16.6617V16.8832H5.54531V16.6617Z"
            fill="black"
          />
        </svg>