<svg
          width="24"
          height="24"
          viewBox="0 0 24 24"
          fill="none"
          xmlns="http://www.w3.org/2000/svg"
          class="contact__icon"
        >
          <path
            fill-rule="evenodd"
            clip-rule="evenodd"
            d="M12 22C17.5228 22 22 17.5228 22 12C22 6.47715 17.5228 2 12 2C6.47715 2 2 6.47715 2 12C2 17.5228 6.47715 22 12 22ZM16.3642 7.51311C16.9338 7.28851 17.543 7.74263 17.4439 8.31797L15.9764 16.8304C15.8872 17.3478 15.2738 17.6176 14.7969 17.349L10.5452 14.9549C10.1021 14.7054 10.029 14.1275 10.3974 13.7864L14.1948 10.2707C14.3308 10.1449 14.1574 9.94176 13.9983 10.0405L8.72267 13.3133C8.33269 13.5553 7.8491 13.6213 7.4025 13.4936L5.06253 12.8245C4.63882 12.7033 4.60893 12.1476 5.01747 11.9866L16.3642 7.51311Z"
            fill="black"
          />
        </svg>