<svg
          width="24"
          height="24"
          viewBox="0 0 24 24"
          fill="none"
          xmlns="http://www.w3.org/2000/svg"
          class="contact__icon hide-cursor"
        >
          <path
            d="M23 6.77474C22.2639 7.0759 21.4741 7.28015 20.6442 7.37133C21.4915 6.90282 22.1402 6.1597 22.4476 5.27694C21.6527 5.71081 20.7754 6.02585 19.8406 6.19664C19.092 5.45928 18.0271 5 16.8461 5C14.5803 5 12.7431 6.69628 12.7431 8.78721C12.7431 9.08376 12.7794 9.3734 12.8494 9.65037C9.44001 9.49225 6.41684 7.98407 4.39347 5.69234C4.03977 6.25086 3.83856 6.90165 3.83856 7.59634C3.83856 8.91068 4.56343 10.0704 5.66324 10.7489C4.99085 10.7281 4.35847 10.5573 3.80484 10.2735V10.3208C3.80484 12.1555 5.21958 13.6868 7.09546 14.0353C6.75177 14.1207 6.38935 14.168 6.01442 14.168C5.74948 14.168 5.49327 14.1438 5.24206 14.0976C5.76445 15.6035 7.27919 16.6986 9.07387 16.7286C7.67037 17.7441 5.90069 18.3476 3.97856 18.3476C3.64739 18.3476 3.32118 18.3291 3 18.2956C4.81592 19.3723 6.97177 20 9.28883 20C16.8362 20 20.9617 14.228 20.9617 9.22226L20.9479 8.73184C21.754 8.20099 22.4513 7.53403 23 6.77474Z"
            fill="black"
          />
        </svg>