
<svg
          width="24"
          height="24"
          viewBox="0 0 24 24"
          fill="none"
          xmlns="http://www.w3.org/2000/svg"
          class="contact__icon hide-cursor"
        >
          <path
            d="M9.5149 5.00371C9.27581 4.96967 9.26442 4.95833 9.37827 4.94698C9.5946 4.91294 10.0956 4.95833 10.4485 5.03775C11.2682 5.23063 12.0083 5.72986 12.7939 6.60351L12.9988 6.84177L13.2948 6.79639C14.5586 6.59216 15.8565 6.751 16.9381 7.25023C17.2342 7.38638 17.701 7.65869 17.7579 7.72676C17.7807 7.74946 17.8148 7.89696 17.8376 8.04445C17.9173 8.57772 17.8831 8.97483 17.7123 9.28117C17.6213 9.45136 17.6213 9.49675 17.6782 9.64425C17.7237 9.75771 17.8604 9.83713 17.9856 9.83713C18.2588 9.83713 18.5435 9.40598 18.6801 8.80464L18.737 8.56637L18.8395 8.67983C19.4202 9.32656 19.8756 10.2229 19.9439 10.8583L19.9666 11.0285L19.8642 10.881C19.6934 10.62 19.534 10.4498 19.3177 10.3023C18.9306 10.0414 18.5207 9.96194 17.4391 9.90521C16.46 9.84848 15.9021 9.76905 15.3556 9.58752C14.422 9.28117 13.9438 8.88406 12.8394 7.42042C12.3498 6.7737 12.0424 6.42197 11.735 6.12697C11.0633 5.48025 10.3916 5.13986 9.5149 5.00371Z"
            fill="black"
          />
          <path
            d="M17.9969 6.44452C18.0197 6.01337 18.0766 5.72972 18.2019 5.46876C18.2474 5.36665 18.2929 5.27588 18.3043 5.27588C18.3157 5.27588 18.2929 5.3553 18.2588 5.44607C18.1677 5.69568 18.1563 6.04741 18.2132 6.44452C18.2929 6.9551 18.3271 7.02317 18.8736 7.57913C19.1241 7.84009 19.4201 8.16912 19.5339 8.30528L19.7275 8.55489L19.5339 8.37335C19.2948 8.14643 18.7483 7.71528 18.6231 7.65855C18.5434 7.61317 18.532 7.61317 18.4751 7.6699C18.4296 7.71528 18.4182 7.78336 18.4182 8.11239C18.4068 8.62297 18.3385 8.94066 18.1677 9.26969C18.0766 9.43988 18.0652 9.40584 18.1449 9.21296C18.2019 9.06546 18.2132 8.99739 18.2132 8.50951C18.2132 7.5224 18.0994 7.28413 17.4049 6.88702C17.2341 6.78491 16.9381 6.63741 16.7673 6.55798C16.5851 6.47856 16.4485 6.41049 16.4599 6.41049C16.4827 6.38779 17.1544 6.58068 17.4163 6.69414C17.8147 6.85298 17.8831 6.86433 17.9286 6.85298C17.9628 6.81894 17.9855 6.72817 17.9969 6.44452Z"
            fill="black"
          />
          <path
            d="M9.98164 8.13519C9.50345 7.47712 9.19605 6.45597 9.26436 5.69579L9.28713 5.45752L9.40098 5.48021C9.60592 5.51425 9.95886 5.6504 10.1296 5.75252C10.5851 6.02482 10.79 6.39924 10.9835 7.32962C11.0405 7.60193 11.1202 7.91961 11.1543 8.02173C11.2113 8.19192 11.4276 8.58903 11.6097 8.83865C11.735 9.02018 11.6553 9.11095 11.3706 9.08826C10.938 9.04287 10.3574 8.64576 9.98164 8.13519Z"
            fill="black"
          />
          <path
            d="M17.4163 13.0707C15.162 12.163 14.3651 11.3801 14.3651 10.0527C14.3651 9.85977 14.3764 9.70093 14.3764 9.70093C14.3878 9.70093 14.4675 9.769 14.57 9.84843C15.0254 10.2115 15.5377 10.3703 16.9609 10.5746C17.792 10.6994 18.2702 10.7901 18.7029 10.9376C20.0805 11.3915 20.9344 12.3219 21.1393 13.5813C21.1963 13.9444 21.1621 14.6365 21.071 14.9995C20.9913 15.2832 20.7636 15.8051 20.7067 15.8165C20.6953 15.8165 20.6725 15.7597 20.6725 15.669C20.6498 15.1924 20.4107 14.7386 20.0122 14.3868C19.534 13.9784 18.9192 13.672 17.4163 13.0707Z"
            fill="black"
          />
          <path
            d="M15.8224 13.4451C15.7996 13.2749 15.7427 13.0593 15.7085 12.9685L15.6516 12.7983L15.7541 12.9231C15.9021 13.0933 16.0159 13.2976 16.1184 13.5812C16.1981 13.7968 16.1981 13.8649 16.1981 14.2166C16.1981 14.557 16.1867 14.6364 16.1184 14.8293C16.0045 15.1356 15.8679 15.3512 15.6402 15.5895C15.2303 16.0093 14.6952 16.2362 13.9324 16.3383C13.7958 16.3497 13.4087 16.3837 13.0671 16.4064C12.2132 16.4518 11.6439 16.5425 11.1316 16.7241C11.0633 16.7468 10.995 16.7695 10.9836 16.7581C10.9608 16.7354 11.3138 16.5312 11.5984 16.395C11.9969 16.2022 12.4068 16.1 13.3062 15.9412C13.7502 15.8731 14.2056 15.7824 14.3195 15.737C15.4466 15.3852 16.0045 14.5116 15.8224 13.4451Z"
            fill="black"
          />
          <path
            d="M16.8584 15.2718C16.5624 14.6251 16.4941 14.0124 16.6535 13.4338C16.6763 13.377 16.699 13.3203 16.7218 13.3203C16.7446 13.3203 16.8129 13.3544 16.8812 13.3997C17.0178 13.4905 17.3025 13.6493 18.0311 14.0465C18.9534 14.5457 19.4771 14.9315 19.8414 15.3739C20.1602 15.7597 20.3537 16.2022 20.4448 16.7468C20.5018 17.0532 20.4676 17.7907 20.3879 18.097C20.1374 19.0614 19.5682 19.8329 18.737 20.2754C18.6118 20.3435 18.5093 20.3889 18.4979 20.3889C18.4865 20.3889 18.5321 20.2754 18.6004 20.1393C18.8737 19.5606 18.9078 19.0047 18.7029 18.3807C18.5776 17.9949 18.3158 17.5297 17.792 16.7468C17.1658 15.8391 17.0178 15.6009 16.8584 15.2718Z"
            fill="black"
          />
          <path
            d="M8.37636 18.7437C9.21888 18.0402 10.2549 17.541 11.2113 17.3822C11.6212 17.3141 12.3043 17.3368 12.68 17.4389C13.2834 17.5978 13.8299 17.9381 14.1146 18.3579C14.3878 18.7664 14.5131 19.1181 14.6383 19.901C14.6838 20.2073 14.7408 20.525 14.7522 20.5931C14.8432 21.0016 15.0254 21.3193 15.2531 21.4894C15.6061 21.7504 16.2209 21.7618 16.8243 21.5348C16.9268 21.5008 17.0178 21.4668 17.0178 21.4781C17.0406 21.5008 16.7332 21.705 16.5283 21.8071C16.2436 21.9546 16.0159 22 15.7085 22C15.162 22 14.6952 21.7164 14.3195 21.1491C14.2398 21.0356 14.0804 20.7066 13.9438 20.4002C13.5453 19.4812 13.3404 19.2089 12.8736 18.9025C12.4637 18.6416 11.94 18.5849 11.5415 18.7777C11.0178 19.0274 10.8811 19.6968 11.2455 20.1052C11.3935 20.2754 11.6667 20.4116 11.8944 20.4456C12.3157 20.5023 12.68 20.1733 12.68 19.7535C12.68 19.4812 12.5776 19.3224 12.3043 19.1975C11.94 19.0387 11.5415 19.2202 11.5529 19.572C11.5529 19.7195 11.6212 19.8102 11.7692 19.8783C11.8603 19.9237 11.8603 19.9237 11.792 19.9123C11.4618 19.8443 11.3821 19.4358 11.644 19.1749C11.9627 18.8572 12.6345 18.9933 12.8622 19.4358C12.9533 19.6173 12.9647 19.9804 12.885 20.2073C12.6914 20.7066 12.1449 20.9675 11.587 20.82C11.2113 20.7179 11.0519 20.6158 10.5965 20.1506C9.79953 19.3337 9.49212 19.1749 8.35359 19.0047L8.13727 18.9706L8.37636 18.7437Z"
            fill="black"
          />
          <path
            fill-rule="evenodd"
            clip-rule="evenodd"
            d="M2.38761 0.48788C5.0404 3.69881 9.12774 8.69108 9.33267 8.96339C9.50345 9.19031 9.43514 9.40588 9.15051 9.56473C8.99111 9.6555 8.66094 9.74626 8.50154 9.74626C8.31938 9.74626 8.10305 9.6555 7.95505 9.508C7.85258 9.40588 7.40855 8.75916 6.40664 7.20475C5.64382 6.01341 4.99485 5.0263 4.98347 5.01496C4.93793 4.99227 4.93793 4.99227 6.32694 7.46571C7.20361 9.02012 7.48825 9.57607 7.48825 9.64415C7.48825 9.79165 7.4427 9.87107 7.26054 10.0753C6.95313 10.4157 6.81651 10.8014 6.71404 11.607C6.60019 12.5034 6.29278 13.1387 5.41611 14.2166C4.90377 14.852 4.82407 14.9655 4.69883 15.2264C4.53944 15.5441 4.4939 15.7256 4.47113 16.1341C4.44836 16.5652 4.4939 16.8375 4.61914 17.246C4.73299 17.6091 4.85823 17.8473 5.16563 18.3125C5.4275 18.721 5.58689 19.0273 5.58689 19.1408C5.58689 19.2316 5.60966 19.2316 6.01954 19.1408C6.99868 18.9139 7.80704 18.5281 8.25106 18.0516C8.52431 17.7566 8.59263 17.5977 8.59263 17.1893C8.59263 16.9283 8.58124 16.8716 8.51293 16.7127C8.39907 16.4631 8.18275 16.2589 7.71595 15.9412C7.10114 15.5214 6.83928 15.181 6.77097 14.7272C6.71404 14.3414 6.78235 14.0805 7.12391 13.3657C7.47686 12.6282 7.56794 12.3218 7.62487 11.573C7.65903 11.0964 7.71595 10.9036 7.85258 10.7561C8.00059 10.5972 8.12583 10.5405 8.47877 10.4951C9.05942 10.4157 9.43514 10.2682 9.73116 9.98453C9.99302 9.74626 10.1069 9.508 10.1183 9.15627L10.1296 8.89531L9.98164 8.73646C9.44653 8.12378 2.03466 0 2.00051 0C1.98912 0 2.17129 0.215575 2.38761 0.48788ZM5.88291 16.622C6.00815 16.4064 5.93984 16.1341 5.7349 15.9979C5.54135 15.8731 5.24533 15.9299 5.24533 16.1001C5.24533 16.1454 5.2681 16.1908 5.33641 16.2135C5.43888 16.2702 5.45027 16.327 5.37057 16.4518C5.29087 16.5766 5.29087 16.6901 5.39334 16.7695C5.55274 16.8943 5.76906 16.8262 5.88291 16.622Z"
            fill="black"
          />
          <path
            fill-rule="evenodd"
            clip-rule="evenodd"
            d="M10.494 10.654C10.2208 10.7334 9.95893 11.0284 9.87923 11.3234C9.83369 11.5049 9.85646 11.8339 9.93616 11.9361C10.0614 12.0949 10.1752 12.1403 10.494 12.1403C11.1202 12.1403 11.6553 11.868 11.7123 11.5389C11.7692 11.2666 11.5301 10.8922 11.1999 10.722C11.0291 10.6313 10.6762 10.5972 10.494 10.654ZM11.2227 11.2213C11.3138 11.0851 11.2796 10.9376 11.1088 10.8355C10.8014 10.6426 10.3346 10.8015 10.3346 11.0965C10.3346 11.244 10.5737 11.4028 10.8014 11.4028C10.9495 11.4028 11.1544 11.312 11.2227 11.2213Z"
            fill="black"
          />
        </svg>